<svg xmlns="http://www.w3.org/2000/svg" viewBox="0 0 108 108" role="img" aria-labelledby="title">
  <title id="title">tcptun icon</title>
  <defs>
    <linearGradient id="background" x1="0" y1="0" x2="108" y2="108" gradientUnits="userSpaceOnUse">
      <stop offset="0" stop-color="#13B9F6"/>
      <stop offset="0.5" stop-color="#0879FF"/>
      <stop offset="1" stop-color="#0547F5"/>
    </linearGradient>
  </defs>
  <rect width="108" height="108" fill="url(#background)"/>
  <g transform="translate(18.36 18.36) scale(0.66)">
    <path fill="#073DD9" fill-opacity="0.18" d="M58,32L76,49H57C48.8,49 43,55.6 42,65C48.5,55.7 55.8,52 68,52H77Z"/>
    <path fill="#F9FBFF" d="M29,29H66C68.7,29 70.4,31.4 69.8,34C67.7,43.3 60.1,49 50.1,49H48.6L42.8,82C42.2,85.4 39.4,87.7 36,87.7H28.5C25.7,87.7 24.2,85.7 24.7,82.9L30.6,49H19.2C17.1,49 15.8,47.4 16.2,45.3L17.8,37.1C18.8,32.2 23.4,29 29,29Z"/>
    <path fill="#0D3DDB" fill-opacity="0.20" d="M52,49H69L66.6,61H48.4C49.2,55.6 50.3,51.9 52,49Z"/>
    <path fill="#FFFFFF" d="M57,45H90.2C92.6,45 94,46.9 93.6,49.2L92.5,55.9C91.4,63.4 85.5,68 76.9,68H73.5L68.8,92.1C68.1,95.4 65.5,97.3 62.2,97.3H54.1C51.2,97.3 49.8,95.4 50.4,92.5L55.1,68H47.8C45.3,68 43.9,66 44.5,63.6L46.6,55.5C48.2,49.3 52.1,45 57,45Z"/>
  </g>
</svg>
